# xmcd
#
# Track frame offsets:
#	150
#	11409
#	24699
#	41666
#	55056
#	80013
#	97720
#	110408
#	119070
#	141405
#	159844
#	179016
#	191335
#
# Disc length: 2844 seconds
# Revision: 0
# Processed by: cddbd v1.5.2PL0 Copyright (c) Steve Scherf et al.
# Submitted via: dBpowerAMP V12.0
#
DISCID=a80b1a0d
DTITLE=Sneezy Waters - Sneezy Waters
DYEAR=2011
DGENRE=Country
TTITLE0=Papa's On The Housetop
TTITLE1=Beware (Oh Take Care)
TTITLE2=Her Heart Or Mine
TTITLE3=I Heard The Bluebirds Sing
TTITLE4=Invitation To The Blues
TTITLE5=Twilight Time
TTITLE6=Buckdance
TTITLE7=Solitude
TTITLE8=(When I'm Loving Them) I Only Think Of You
TTITLE9=Brother Can You Spare A Dime
TTITLE10=Me And Molly
TTITLE11=Ever Since You Told Me That You Loved Me (I'm A Nut)
TTITLE12=Circle Of Friends
EXTD=
EXTT0=
EXTT1=
EXTT2=
EXTT3=
EXTT4=
EXTT5=
EXTT6=
EXTT7=
EXTT8=
EXTT9=
EXTT10=
EXTT11=
EXTT12=
PLAYORDER=
